<svg xmlns="http://www.w3.org/2000/svg" width="412.433" height="404.835" viewBox="0 0 412.433 404.835">
  <g id="Group_199" data-name="Group 199" transform="translate(-39.681 -34.054)">
    <g id="Background_Complete" data-name="Background Complete" transform="translate(39.681 34.054)">
      <g id="Group_49" data-name="Group 49">
        <g id="Group_15" data-name="Group 15" transform="translate(254.237 180.825)">
          <g id="Group_9" data-name="Group 9">
            <g id="Group_3" data-name="Group 3">
              <path id="Path_1" data-name="Path 1" d="M461.222,312.923h-158.2V221.357h158.2Zm-157.23-.965H460.256V222.322H303.991Z" transform="translate(-303.026 -221.357)" fill="#e0e0e0"/>
            </g>
            <g id="Group_4" data-name="Group 4" transform="translate(21.169 48.822)">
              <rect id="Rectangle_9" data-name="Rectangle 9" width="104.395" height="3.062" fill="#f0f0f0"/>
            </g>
            <g id="Group_5" data-name="Group 5" transform="translate(21.169 60.236)">
              <rect id="Rectangle_10" data-name="Rectangle 10" width="111.584" height="3.341" fill="#f0f0f0"/>
            </g>
            <g id="Group_6" data-name="Group 6" transform="translate(21.169 71.781)">
              <rect id="Rectangle_11" data-name="Rectangle 11" width="111.584" height="3.341" fill="#f0f0f0"/>
            </g>
            <g id="Group_7" data-name="Group 7" transform="translate(21.169 32.247)">
              <rect id="Rectangle_12" data-name="Rectangle 12" width="36.485" height="7.945" fill="#f0f0f0"/>
            </g>
            <g id="Group_8" data-name="Group 8" transform="translate(0.483 0.483)">
              <rect id="Rectangle_13" data-name="Rectangle 13" width="157.231" height="14.576" fill="#e0e0e0"/>
            </g>
          </g>
          <g id="Group_14" data-name="Group 14" transform="translate(145.601 2.65)">
            <g id="Group_11" data-name="Group 11">
              <g id="Group_10" data-name="Group 10">
                <path id="Path_2" data-name="Path 2" d="M453.857,234.333c-.2-.192,1.826-2.636,4.524-5.457s5.052-4.955,5.253-4.762-1.826,2.635-4.526,5.457S454.057,234.526,453.857,234.333Z" transform="translate(-453.843 -224.102)" fill="#fff"/>
              </g>
            </g>
            <g id="Group_13" data-name="Group 13">
              <g id="Group_12" data-name="Group 12">
                <path id="Path_3" data-name="Path 3" d="M463.633,234.333c-.2.192-2.553-1.94-5.252-4.762s-4.726-5.265-4.525-5.457,2.551,1.94,5.251,4.762S463.834,234.141,463.633,234.333Z" transform="translate(-453.843 -224.102)" fill="#fff"/>
              </g>
            </g>
          </g>
        </g>
        <g id="Group_28" data-name="Group 28" transform="translate(60.514)">
          <g id="Group_22" data-name="Group 22">
            <g id="Group_16" data-name="Group 16">
              <rect id="Rectangle_14" data-name="Rectangle 14" width="157.231" height="90.599" fill="#e6e6e6"/>
            </g>
            <g id="Group_17" data-name="Group 17" transform="translate(20.687 48.339)">
              <rect id="Rectangle_15" data-name="Rectangle 15" width="104.394" height="3.062" fill="#f0f0f0"/>
            </g>
            <g id="Group_18" data-name="Group 18" transform="translate(20.687 59.752)">
              <rect id="Rectangle_16" data-name="Rectangle 16" width="111.585" height="3.341" fill="#f0f0f0"/>
            </g>
            <g id="Group_19" data-name="Group 19" transform="translate(20.687 71.298)">
              <rect id="Rectangle_17" data-name="Rectangle 17" width="111.585" height="3.341" fill="#f0f0f0"/>
            </g>
            <g id="Group_20" data-name="Group 20" transform="translate(20.687 31.764)">
              <rect id="Rectangle_18" data-name="Rectangle 18" width="36.484" height="7.945" fill="#f0f0f0"/>
            </g>
            <g id="Group_21" data-name="Group 21">
              <rect id="Rectangle_19" data-name="Rectangle 19" width="157.231" height="14.576" fill="#e0e0e0"/>
            </g>
          </g>
          <g id="Group_27" data-name="Group 27" transform="translate(144.579 2.096)">
            <g id="Group_24" data-name="Group 24" transform="translate(0)">
              <g id="Group_23" data-name="Group 23">
                <path id="Path_4" data-name="Path 4" d="M252.136,46.458c-.2-.192,1.826-2.636,4.525-5.457s5.051-4.955,5.252-4.763-1.825,2.636-4.525,5.458S252.336,46.651,252.136,46.458Z" transform="translate(-252.122 -36.226)" fill="#fff"/>
              </g>
            </g>
            <g id="Group_26" data-name="Group 26">
              <g id="Group_25" data-name="Group 25">
                <path id="Path_5" data-name="Path 5" d="M261.912,46.458c-.2.192-2.552-1.941-5.251-4.762s-4.727-5.266-4.526-5.458,2.552,1.94,5.252,4.763S262.113,46.266,261.912,46.458Z" transform="translate(-252.122 -36.226)" fill="#fff"/>
              </g>
            </g>
          </g>
        </g>
        <g id="Group_35" data-name="Group 35" transform="translate(0 76.741)">
          <g id="Group_29" data-name="Group 29">
            <path id="Path_6" data-name="Path 6" d="M197.877,205.11H39.681V113.544h158.2Zm-157.23-.965H196.911V114.509H40.646Z" transform="translate(-39.681 -113.544)" fill="#e0e0e0"/>
          </g>
          <g id="Group_30" data-name="Group 30" transform="translate(21.169 48.822)">
            <rect id="Rectangle_20" data-name="Rectangle 20" width="104.395" height="3.062" fill="#f0f0f0"/>
          </g>
          <g id="Group_31" data-name="Group 31" transform="translate(21.169 60.236)">
            <rect id="Rectangle_21" data-name="Rectangle 21" width="111.585" height="3.34" fill="#f0f0f0"/>
          </g>
          <g id="Group_32" data-name="Group 32" transform="translate(21.169 71.781)">
            <rect id="Rectangle_22" data-name="Rectangle 22" width="111.585" height="3.34" fill="#f0f0f0"/>
          </g>
          <g id="Group_33" data-name="Group 33" transform="translate(21.169 32.247)">
            <rect id="Rectangle_23" data-name="Rectangle 23" width="36.485" height="7.945" fill="#f0f0f0"/>
          </g>
          <g id="Group_34" data-name="Group 34" transform="translate(0.482 0.483)">
            <rect id="Rectangle_24" data-name="Rectangle 24" width="157.231" height="14.576" fill="#e0e0e0"/>
          </g>
        </g>
        <g id="Group_36" data-name="Group 36" transform="translate(155.114 189.289)">
          <rect id="Rectangle_25" data-name="Rectangle 25" width="185.653" height="166.202" fill="#e6e6e6"/>
        </g>
        <g id="Group_42" data-name="Group 42" transform="translate(19.019 136.932)">
          <g id="Group_37" data-name="Group 37">
            <rect id="Rectangle_26" data-name="Rectangle 26" width="145.428" height="151.096" fill="#f0f0f0"/>
          </g>
          <g id="Group_38" data-name="Group 38">
            <rect id="Rectangle_27" data-name="Rectangle 27" width="145.428" height="16.463" fill="#e0e0e0"/>
          </g>
          <g id="Group_39" data-name="Group 39" transform="translate(5.903 4.871)">
            <path id="Path_7" data-name="Path 7" d="M71.6,184.13a3.057,3.057,0,1,1-3.054-3.192A3.125,3.125,0,0,1,71.6,184.13Z" transform="translate(-65.495 -180.938)" fill="#fff"/>
          </g>
          <g id="Group_40" data-name="Group 40" transform="translate(18.288 4.871)">
            <path id="Path_8" data-name="Path 8" d="M84.43,184.13a3.056,3.056,0,1,1-3.053-3.192A3.124,3.124,0,0,1,84.43,184.13Z" transform="translate(-78.324 -180.938)" fill="#fff"/>
          </g>
          <g id="Group_41" data-name="Group 41" transform="translate(30.673 4.871)">
            <path id="Path_9" data-name="Path 9" d="M97.259,184.13a3.056,3.056,0,1,1-3.054-3.192A3.125,3.125,0,0,1,97.259,184.13Z" transform="translate(-91.153 -180.938)" fill="#fff"/>
          </g>
        </g>
        <g id="Group_48" data-name="Group 48" transform="translate(206.019 33.047)">
          <g id="Group_43" data-name="Group 43">
            <rect id="Rectangle_28" data-name="Rectangle 28" width="185.653" height="185.032" fill="#f0f0f0"/>
          </g>
          <g id="Group_44" data-name="Group 44">
            <rect id="Rectangle_29" data-name="Rectangle 29" width="185.653" height="21.673" fill="#e0e0e0"/>
          </g>
          <g id="Group_45" data-name="Group 45" transform="translate(7.771 6.413)">
            <path id="Path_10" data-name="Path 10" d="M269.17,79.128a4.024,4.024,0,1,1-4.021-4.2A4.115,4.115,0,0,1,269.17,79.128Z" transform="translate(-261.13 -74.927)" fill="#fff"/>
          </g>
          <g id="Group_46" data-name="Group 46" transform="translate(23.984 6.503)">
            <path id="Path_11" data-name="Path 11" d="M284.878,76.291a4.023,4.023,0,1,1-5.814-.129A4.113,4.113,0,0,1,284.878,76.291Z" transform="translate(-277.924 -75.021)" fill="#fff"/>
          </g>
          <g id="Group_47" data-name="Group 47" transform="translate(40.382 6.413)">
            <path id="Path_12" data-name="Path 12" d="M302.948,79.128a4.023,4.023,0,1,1-4.02-4.2A4.114,4.114,0,0,1,302.948,79.128Z" transform="translate(-294.909 -74.927)" fill="#fff"/>
          </g>
        </g>
      </g>
    </g>
    <g id="Floor" transform="translate(91.807 438.386)">
      <g id="Group_50" data-name="Group 50">
        <path id="Path_13" data-name="Path 13" d="M393.115,453.122c0,.139-67.037.252-149.713.252-82.705,0-149.728-.113-149.728-.252s67.023-.251,149.728-.251C326.077,452.871,393.115,452.984,393.115,453.122Z" transform="translate(-93.674 -452.871)" fill="#8995a0"/>
      </g>
    </g>
    <g id="Plant" transform="translate(308.154 217.565)">
      <g id="Group_68" data-name="Group 68">
        <g id="Group_52" data-name="Group 52">
          <g id="Group_51" data-name="Group 51">
            <path id="Path_14" data-name="Path 14" d="M335.542,327.026c-14.914-10.42-18.3-29.76-17.708-47.145.1-2.9-.22-5.96,1.16-8.507s4.6-4.286,7.2-3.063c2.155,1.015,3.094,3.522,4.3,5.595a16.969,16.969,0,0,0,6.805,6.5c1.849.96,4.135,1.546,5.959.54,2.5-1.382,2.8-4.84,2.78-7.726q-.051-8.069-.1-16.138a26.886,26.886,0,0,1,.871-8.572c.9-2.74,2.881-5.284,5.626-6.053s6.142.814,6.721,3.639a26.677,26.677,0,0,1,.082,3.594,3.036,3.036,0,0,0,1.776,2.858c1.152.339,2.307-.48,3.169-1.325,2.979-2.915,5-6.668,6.89-10.4s3.723-7.555,6.426-10.733,6.442-5.7,10.575-5.932,8.538,2.317,9.583,6.375-1.326,8.2-3.91,11.491a64.447,64.447,0,0,1-13.413,12.787,5.3,5.3,0,0,0-2.245,2.413c-.627,1.924,1.2,3.835,3.1,4.468,2.152.716,4.486.493,6.737.758s4.688,1.258,5.54,3.385c1.183,2.949-1.285,6.042-3.712,8.067a55.216,55.216,0,0,1-16.334,9.429c-2.124.776-4.358,1.458-6.07,2.949s-2.746,4.087-1.712,6.119,3.69,2.687,5.914,2.274,4.214-1.62,6.334-2.419c3.966-1.5,9.088-1.224,11.628,2.2a9.132,9.132,0,0,1,.972,8.077,21.046,21.046,0,0,1-4.375,7.133,55.5,55.5,0,0,1-23.7,16.653c-9.2,3.191-17.726,4.054-26.87.71" transform="translate(-317.772 -224.14)" fill="#01a594"/>
          </g>
        </g>
        <g id="Group_55" data-name="Group 55" transform="translate(17.119 2.431)">
          <g id="Group_54" data-name="Group 54">
            <g id="Group_53" data-name="Group 53">
              <path id="Path_15" data-name="Path 15" d="M394.1,226.658a2.183,2.183,0,0,1-.28.274l-.857.764c-.756.668-1.871,1.655-3.272,2.963a108.39,108.39,0,0,0-11.024,11.9c-2.147,2.675-4.379,5.7-6.716,9s-4.8,6.843-7.256,10.664a130.53,130.53,0,0,0-7.121,12.335c-1.113,2.206-2.1,4.515-3.117,6.869s-2.027,4.741-3.062,7.158a265.108,265.108,0,0,0-10.286,27.775,128.87,128.87,0,0,0-4.81,23.683,94.431,94.431,0,0,0-.271,16.3c.152,1.921.3,3.413.434,4.419.055.483.1.862.132,1.147a2.369,2.369,0,0,1,.029.4,2.023,2.023,0,0,1-.082-.387c-.045-.283-.108-.66-.186-1.14-.17-1-.35-2.493-.534-4.418a90.3,90.3,0,0,1,.1-16.355,126.69,126.69,0,0,1,4.716-23.788,258.483,258.483,0,0,1,10.265-27.844q1.554-3.626,3.066-7.16c1.012-2.348,2.015-4.676,3.137-6.893a129.025,129.025,0,0,1,7.177-12.369c2.472-3.824,4.959-7.362,7.307-10.653s4.612-6.311,6.784-8.978A102.322,102.322,0,0,1,389.557,230.5c1.423-1.287,2.56-2.248,3.34-2.89l.89-.724A2.051,2.051,0,0,1,394.1,226.658Z" transform="translate(-335.504 -226.657)" fill="#263238"/>
            </g>
          </g>
        </g>
        <g id="Group_58" data-name="Group 58" transform="translate(34.654 18.316)">
          <g id="Group_57" data-name="Group 57">
            <g id="Group_56" data-name="Group 56">
              <path id="Path_16" data-name="Path 16" d="M357.892,274.865a5.908,5.908,0,0,1-.282-1.231c-.152-.8-.332-1.958-.535-3.4-.408-2.874-.836-6.862-1.292-11.261s-.939-8.371-1.39-11.23c-.221-1.431-.411-2.587-.554-3.384a5.838,5.838,0,0,1-.161-1.253,5.748,5.748,0,0,1,.363,1.21c.2.786.453,1.935.721,3.362.548,2.854,1.093,6.833,1.548,11.238.438,4.341.834,8.269,1.137,11.27.145,1.354.268,2.5.367,3.413A5.681,5.681,0,0,1,357.892,274.865Z" transform="translate(-353.668 -243.112)" fill="#263238"/>
            </g>
          </g>
        </g>
        <g id="Group_61" data-name="Group 61" transform="translate(38.878 43.097)">
          <g id="Group_60" data-name="Group 60">
            <g id="Group_59" data-name="Group 59">
              <path id="Path_17" data-name="Path 17" d="M395.152,268.819a8.073,8.073,0,0,1-1.48.177c-.953.085-2.331.2-4.029.4-3.4.366-8.076,1.038-13.2,2s-9.73,2.056-13.037,2.934c-1.658.427-2.988.809-3.911,1.067a7.813,7.813,0,0,1-1.448.355,7.971,7.971,0,0,1,1.387-.555c.9-.32,2.224-.758,3.873-1.234,3.29-.974,7.9-2.117,13.039-3.1a130.857,130.857,0,0,1,13.265-1.854c1.708-.149,3.1-.208,4.054-.227A7.835,7.835,0,0,1,395.152,268.819Z" transform="translate(-358.043 -268.78)" fill="#263238"/>
            </g>
          </g>
        </g>
        <g id="Group_64" data-name="Group 64" transform="translate(4.029 43.911)">
          <g id="Group_63" data-name="Group 63">
            <g id="Group_62" data-name="Group 62">
              <path id="Path_18" data-name="Path 18" d="M340.631,317.018a1.916,1.916,0,0,1-.254-.452l-.635-1.343c-.545-1.168-1.292-2.88-2.185-5.006-1.791-4.251-4.079-10.2-6.515-16.8s-4.668-12.566-6.367-16.847c-.832-2.081-1.518-3.794-2.027-5.066-.217-.552-.4-1.008-.544-1.382a1.882,1.882,0,0,1-.156-.5,2.027,2.027,0,0,1,.254.454l.635,1.342c.545,1.168,1.292,2.879,2.185,5.006,1.791,4.251,4.079,10.2,6.516,16.8s4.667,12.563,6.366,16.845c.833,2.08,1.518,3.794,2.027,5.066l.544,1.382A1.906,1.906,0,0,1,340.631,317.018Z" transform="translate(-321.945 -269.624)" fill="#263238"/>
            </g>
          </g>
        </g>
        <g id="Group_67" data-name="Group 67" transform="translate(22.714 75.408)">
          <g id="Group_66" data-name="Group 66">
            <g id="Group_65" data-name="Group 65">
              <path id="Path_19" data-name="Path 19" d="M390.611,302.254a1.945,1.945,0,0,1-.489.2l-1.433.481-5.281,1.711c-4.458,1.446-10.592,3.514-17.369,5.808s-12.937,4.309-17.428,5.662c-2.245.678-4.065,1.208-5.332,1.548l-1.461.384a1.892,1.892,0,0,1-.519.1,2.034,2.034,0,0,1,.489-.2c.385-.127.858-.287,1.433-.479l5.279-1.711c4.458-1.445,10.594-3.514,17.372-5.809s12.936-4.308,17.425-5.661c2.245-.678,4.066-1.208,5.334-1.549l1.46-.383A1.983,1.983,0,0,1,390.611,302.254Z" transform="translate(-341.3 -302.249)" fill="#263238"/>
            </g>
          </g>
        </g>
      </g>
    </g>
    <g id="Padlock" transform="translate(303.484 38.541)">
      <g id="Group_78" data-name="Group 78">
        <g id="Group_70" data-name="Group 70">
          <g id="Group_69" data-name="Group 69">
            <path id="Path_20" data-name="Path 20" d="M369.514,58.953l-4.976,1.779-2.127-6.5c-3.922-11.982-16.445-18.393-27.9-14.3S316.928,57.12,320.85,69.1l2.127,6.5-4.991,1.785a7.938,7.938,0,0,0-4.652,9.923l13.84,42.276a7.457,7.457,0,0,0,9.516,4.933l51.528-18.433a7.978,7.978,0,0,0,4.7-10.017l-13.84-42.276A7.448,7.448,0,0,0,369.514,58.953ZM330.24,65.744a12.742,12.742,0,0,1,7.489-15.984A11.936,11.936,0,0,1,353.014,57.6l2.127,6.5-22.774,8.147Zm28.971,37.509,3.534,10.8a.868.868,0,0,1-.553,1.081l-4.946,1.769a.8.8,0,0,1-1.011-.521l-3.535-10.8a9.651,9.651,0,0,1-8.715-6.762A10.148,10.148,0,0,1,349.962,86.1a9.5,9.5,0,0,1,12.177,6.231A10.313,10.313,0,0,1,359.211,103.253Z" transform="translate(-312.934 -38.702)" fill="#db8c49"/>
          </g>
        </g>
        <g id="Group_71" data-name="Group 71" transform="translate(9.823 21.91)">
          <path id="Path_21" data-name="Path 21" d="M364.674,61.4c.046.131-9.22,3.6-20.7,7.748s-20.821,7.407-20.868,7.275,9.218-3.6,20.7-7.748S364.627,61.271,364.674,61.4Z" transform="translate(-323.109 -61.397)" fill="#db8c49"/>
        </g>
        <g id="Group_73" data-name="Group 73" transform="translate(24.214 23.693)">
          <g id="Group_72" data-name="Group 72">
            <path id="Path_22" data-name="Path 22" d="M376.132,63.244a1.179,1.179,0,0,1,.111.253c.073.2.166.446.281.757l1.031,2.926c.887,2.584,2.15,6.262,3.7,10.791,1.55,4.573,3.391,10,5.432,16.026,1.009,3.025,2.111,6.167,3.168,9.486a14.209,14.209,0,0,1,.724,5.3,7.05,7.05,0,0,1-.781,2.671,7.3,7.3,0,0,1-1.825,2.151,17.194,17.194,0,0,1-4.9,2.5l-4.977,1.788-9.41,3.367-15.943,5.677-10.763,3.786-2.934,1-.768.249a1.055,1.055,0,0,1-.267.069,1.181,1.181,0,0,1,.25-.117l.75-.3,2.9-1.094,10.709-3.936,15.905-5.778,9.4-3.4,4.971-1.794a16.754,16.754,0,0,0,4.756-2.423,6.823,6.823,0,0,0,1.7-2,6.589,6.589,0,0,0,.725-2.481,13.8,13.8,0,0,0-.7-5.111c-1.04-3.286-2.141-6.458-3.135-9.478-2-6.037-3.809-11.477-5.331-16.06-1.49-4.551-2.7-8.246-3.552-10.843l-.942-2.956c-.1-.317-.173-.572-.233-.772A1.069,1.069,0,0,1,376.132,63.244Z" transform="translate(-338.016 -63.244)" fill="#db8c49"/>
          </g>
        </g>
        <g id="Group_75" data-name="Group 75" transform="translate(14.621 8.513)">
          <g id="Group_74" data-name="Group 74">
            <path id="Path_23" data-name="Path 23" d="M348.607,49.387c-.025.042-.513-.26-1.461-.642a12.928,12.928,0,0,0-4.215-.845,14.342,14.342,0,0,0-6.218,1.175,13.88,13.88,0,0,0-5.9,4.931,13.021,13.021,0,0,0-2.269,7.33,22.534,22.534,0,0,0,.983,6.318c.509,1.763,1.029,3.161,1.372,4.133a10.4,10.4,0,0,1,.5,1.524,9.245,9.245,0,0,1-.683-1.454c-.4-.951-.971-2.333-1.529-4.1a21.83,21.83,0,0,1-1.105-6.422,13.313,13.313,0,0,1,2.315-7.61,14.136,14.136,0,0,1,6.134-5.074,14.327,14.327,0,0,1,6.419-1.1,12.083,12.083,0,0,1,4.274,1.02,8.572,8.572,0,0,1,1.049.573C348.5,49.288,348.616,49.372,348.607,49.387Z" transform="translate(-328.079 -47.519)" fill="#db8c49"/>
          </g>
        </g>
        <g id="Group_77" data-name="Group 77" transform="translate(29.864 46.949)">
          <g id="Group_76" data-name="Group 76">
            <path id="Path_24" data-name="Path 24" d="M349.591,88.541a2.787,2.787,0,0,1,.49-.243,10.3,10.3,0,0,1,1.49-.537,10.569,10.569,0,0,1,2.509-.416,8.468,8.468,0,0,1,3.387.5c2.466.867,4.74,3.389,5.856,6.729a9.7,9.7,0,0,1,.044,5.543,12.562,12.562,0,0,1-3.157,5.219l.064-.256c1.282,3.518,2.678,7.348,4.132,11.332l.088.243-.244.081-2.207.74-4.8,1.609-.237.079-.078-.237c-1.323-4-2.772-7.776-3.824-11.384l.209.164a9.64,9.64,0,0,1-5.167-2.043A11.624,11.624,0,0,1,344.9,101.8a8.954,8.954,0,0,1-1.023-4.348,10.289,10.289,0,0,1,.81-3.73,10.153,10.153,0,0,1,3.237-4.245,6.141,6.141,0,0,1,1.669-.932,17.877,17.877,0,0,0-1.578,1.049,10.3,10.3,0,0,0-3.069,4.232,9.149,9.149,0,0,0,.3,7.8,11.291,11.291,0,0,0,3.158,3.71,9.239,9.239,0,0,0,4.932,1.922l.163.01.045.154c1.065,3.582,2.522,7.34,3.856,11.359l-.317-.158,4.8-1.611,2.207-.74-.156.323c-1.443-3.988-2.832-7.821-4.1-11.343l-.052-.142.115-.114A12.168,12.168,0,0,0,362.942,100a9.306,9.306,0,0,0,0-5.3c-1.055-3.244-3.224-5.709-5.578-6.574a8.363,8.363,0,0,0-3.275-.551,10.98,10.98,0,0,0-2.476.341C350.283,88.253,349.608,88.582,349.591,88.541Z" transform="translate(-343.868 -87.333)" fill="#db8c49"/>
          </g>
        </g>
      </g>
    </g>
    <g id="Device" transform="translate(191.901 81.247)">
      <g id="Group_122" data-name="Group 122">
        <g id="Group_85" data-name="Group 85">
          <g id="Group_79" data-name="Group 79">
            <path id="Path_25" data-name="Path 25" d="M314.688,367.137l-96.426-.446A21,21,0,0,1,197.354,345.6l1.021-241.743a21.006,21.006,0,0,1,21.1-20.917l96.427.445a21.005,21.005,0,0,1,20.907,21.094L335.79,346.221A21,21,0,0,1,314.688,367.137Z" transform="translate(-197.354 -82.938)" fill="#455a64"/>
          </g>
          <g id="Group_80" data-name="Group 80" transform="translate(6.403 8.344)">
            <path id="Path_26" data-name="Path 26" d="M316,92.026l-18.7-.087a4.644,4.644,0,0,0-4.56,4.725l-.014,3.391a4.644,4.644,0,0,1-4.56,4.725l-36.441-.168a4.649,4.649,0,0,1-4.52-4.767l.015-3.391a4.649,4.649,0,0,0-4.521-4.766l-6.574-.031-16.363-.075a14.711,14.711,0,0,0-14.779,14.648l-1,235.96a14.71,14.71,0,0,0,14.642,14.773l96.233.444a14.711,14.711,0,0,0,14.779-14.648l1-235.96A14.71,14.71,0,0,0,316,92.026Z" transform="translate(-203.986 -91.581)" fill="#fff"/>
          </g>
          <g id="Group_84" data-name="Group 84" transform="translate(32.567 220.051)">
            <g id="Group_83" data-name="Group 83">
              <g id="Group_82" data-name="Group 82">
                <g id="Group_81" data-name="Group 81">
                  <path id="Path_27" data-name="Path 27" d="M303.982,333.514l-71.56-.33c-.74,0-1.338-.81-1.333-1.8l.079-18.721c0-.992.608-1.792,1.349-1.789l71.56.33c.74,0,1.339.81,1.334,1.8l-.079,18.719C305.327,332.716,304.723,333.518,303.982,333.514Z" transform="translate(-231.088 -310.872)" fill="#01a594"/>
                </g>
                <text id="SING_UP" data-name="SING UP" transform="matrix(1, 0.005, -0.004, 1, 20.759, 12.795)" fill="#e8e8e3" font-size="7" font-family="Poppins-Regular, Poppins"><tspan x="0" y="0">SING UP</tspan></text>
              </g>
            </g>
          </g>
        </g>
        <g id="Group_121" data-name="Group 121" transform="translate(22.61 36.768)">
          <g id="Group_86" data-name="Group 86" transform="translate(0.699 41.251)">
            <rect id="Rectangle_30" data-name="Rectangle 30" width="24.827" height="4.555" transform="translate(0.021 0) rotate(0.264)" fill="#e8505b"/>
            <rect id="Rectangle_31" data-name="Rectangle 31" width="24.827" height="4.555" transform="translate(0.021 0) rotate(0.264)" fill="#008174"/>
          </g>
          <g id="Group_88" data-name="Group 88" transform="translate(0.36 52.395)">
            <g id="Group_87" data-name="Group 87">
              <path id="Path_28" data-name="Path 28" d="M319.144,192.22a2.219,2.219,0,0,0,.567-.132,1.528,1.528,0,0,0,.935-1.3c0-1.54-.007-3.778-.013-6.651q0-2.171,0-4.81,0-.66,0-1.347a1.857,1.857,0,0,0-.27-1.265,1.425,1.425,0,0,0-1.142-.589l-1.513,0-13.944-.027-80.747-.3a1.309,1.309,0,0,0-1.064.538,1.868,1.868,0,0,0-.251,1.262q-.006,1.47-.013,2.93-.013,2.919-.025,5.8-.007,1.441-.014,2.869a8.6,8.6,0,0,0,.04,1.358,1.313,1.313,0,0,0,.754.87,1.461,1.461,0,0,0,.6.1l.707,0,1.409.007,2.8.014,21.44.114c13.66.083,25.962.159,36.3.221l24.473.194,6.653.077,1.73.033c.391.011.591.029.591.029s-.2.016-.591.023l-1.73.016-6.654.016-24.474-.033-36.3-.114-21.439-.084-2.8-.013-1.41-.006-.707,0a1.95,1.95,0,0,1-.787-.141,1.8,1.8,0,0,1-1.044-1.2,2.845,2.845,0,0,1-.06-.771l0-.714q.006-1.429.013-2.869.01-2.88.023-5.8.006-1.46.012-2.93a6.77,6.77,0,0,1,.025-.771,1.765,1.765,0,0,1,.322-.784,1.813,1.813,0,0,1,1.472-.745l80.746.447,13.945.1,1.513.013a1.686,1.686,0,0,1,1.351.708,2.1,2.1,0,0,1,.31,1.418c0,.458-.007.908-.011,1.347-.016,1.756-.03,3.363-.042,4.809-.036,2.877-.064,5.118-.082,6.658a1.576,1.576,0,0,1-1.019,1.339A1.149,1.149,0,0,1,319.144,192.22Z" transform="translate(-221.146 -175.295)" fill="#e0e0e0"/>
            </g>
          </g>
          <g id="Group_89" data-name="Group 89" transform="translate(7.363 58.773)">
            <rect id="Rectangle_32" data-name="Rectangle 32" width="45.416" height="4.258" transform="translate(0.02 0) rotate(0.265)" fill="#e8505b"/>
            <rect id="Rectangle_33" data-name="Rectangle 33" width="45.416" height="4.258" transform="translate(0.02 0) rotate(0.265)" fill="#01a594"/>
          </g>
          <g id="Group_90" data-name="Group 90" transform="translate(0.523 82.825)">
            <rect id="Rectangle_34" data-name="Rectangle 34" width="24.827" height="4.556" transform="translate(0.021 0) rotate(0.264)" fill="#e8505b"/>
            <rect id="Rectangle_35" data-name="Rectangle 35" width="24.827" height="4.556" transform="translate(0.021 0) rotate(0.264)" fill="#008174"/>
          </g>
          <g id="Group_92" data-name="Group 92" transform="translate(0.183 93.971)">
            <g id="Group_91" data-name="Group 91">
              <path id="Path_29" data-name="Path 29" d="M318.5,235.281a3.86,3.86,0,0,0,.572-.108,2,2,0,0,0,1.223-1.094,2.625,2.625,0,0,0,.167-1.224q0-.7-.006-1.533c0-1.112,0-2.39-.008-3.828s0-3.042,0-4.792V221.36a2.091,2.091,0,0,0-.282-1.274,1.891,1.891,0,0,0-1.049-.813,5.929,5.929,0,0,0-1.458-.084l-13.9-.027-80.467-.3a1.775,1.775,0,0,0-1.762,1.554c-.029.918-.015,1.933-.025,2.89q-.013,2.909-.026,5.78,0,1.435-.013,2.86a6.083,6.083,0,0,0,.061,1.348,1.784,1.784,0,0,0,.7.99,1.915,1.915,0,0,0,1.2.309l1.4.008,2.79.014,21.366.113,36.175.221,24.388.193,6.63.077c.745.014,1.317.026,1.724.033.389.011.588.029.588.029s-.2.016-.589.023l-1.724.016-6.63.017-24.389-.033-36.176-.114-21.365-.084-2.791-.012-1.4-.006a2.421,2.421,0,0,1-1.478-.394,2.283,2.283,0,0,1-.9-1.27,6.19,6.19,0,0,1-.079-1.481q.006-1.425.011-2.86.013-2.87.024-5.781c.012-.982-.008-1.914.028-2.946a2.278,2.278,0,0,1,2.264-2l80.466.445,13.9.1a6.031,6.031,0,0,1,1.537.106,2.157,2.157,0,0,1,1.192.935,2.361,2.361,0,0,1,.309,1.411q-.006.685-.011,1.342c-.015,1.75-.03,3.351-.043,4.792s-.028,2.716-.04,3.828c-.007.552-.012,1.064-.017,1.533a2.71,2.71,0,0,1-.2,1.266,2.041,2.041,0,0,1-1.3,1.1A1.557,1.557,0,0,1,318.5,235.281Z" transform="translate(-220.963 -218.36)" fill="#e0e0e0"/>
            </g>
          </g>
          <g id="Group_93" data-name="Group 93" transform="translate(0.34 126.185)">
            <rect id="Rectangle_36" data-name="Rectangle 36" width="24.827" height="4.556" transform="translate(0.021 0) rotate(0.263)" fill="#e8505b"/>
            <rect id="Rectangle_37" data-name="Rectangle 37" width="24.827" height="4.556" transform="translate(0.021 0) rotate(0.263)" fill="#008174"/>
          </g>
          <g id="Group_95" data-name="Group 95" transform="translate(0 137.331)">
            <g id="Group_94" data-name="Group 94">
              <path id="Path_30" data-name="Path 30" d="M318.31,280.194a3.9,3.9,0,0,0,.573-.107,2.005,2.005,0,0,0,1.223-1.095,2.621,2.621,0,0,0,.166-1.223q0-.705,0-1.534c0-1.112,0-2.39-.007-3.827s0-3.043,0-4.793q0-.656,0-1.343a2.1,2.1,0,0,0-.282-1.273,1.9,1.9,0,0,0-1.049-.814,6.042,6.042,0,0,0-1.46-.083l-13.9-.027-80.467-.3a1.774,1.774,0,0,0-1.763,1.554c-.029.918-.015,1.933-.025,2.89q-.012,2.909-.025,5.78-.006,1.435-.013,2.86a6.036,6.036,0,0,0,.06,1.348,1.784,1.784,0,0,0,.7.99,1.909,1.909,0,0,0,1.2.309l1.4.007,2.79.014,21.365.113,36.176.222,24.387.192,6.631.078,1.724.033c.388.011.587.028.587.028s-.2.016-.587.023l-1.724.016-6.631.017-24.389-.033L248.8,280.1l-21.365-.083-2.791-.013-1.4-.006a2.426,2.426,0,0,1-1.479-.394,2.286,2.286,0,0,1-.9-1.27,6.2,6.2,0,0,1-.079-1.482q.006-1.424.012-2.859.012-2.87.023-5.781c.012-.983-.008-1.914.028-2.947a2.278,2.278,0,0,1,2.264-2l80.467.445,13.9.1a6.035,6.035,0,0,1,1.538.106,2.161,2.161,0,0,1,1.191.935,2.363,2.363,0,0,1,.31,1.411q-.006.685-.012,1.342c-.015,1.75-.029,3.352-.042,4.792s-.028,2.716-.04,3.828q-.01.828-.019,1.533a2.7,2.7,0,0,1-.2,1.266,2.037,2.037,0,0,1-1.3,1.1A1.594,1.594,0,0,1,318.31,280.194Z" transform="translate(-220.773 -263.273)" fill="#e0e0e0"/>
            </g>
          </g>
          <g id="Group_96" data-name="Group 96" transform="translate(7.187 100.347)">
            <rect id="Rectangle_38" data-name="Rectangle 38" width="45.417" height="4.258" transform="translate(0.02 0) rotate(0.265)" fill="#e8505b"/>
            <rect id="Rectangle_39" data-name="Rectangle 39" width="45.417" height="4.258" transform="translate(0.02 0) rotate(0.265)" fill="#01a594"/>
          </g>
          <g id="Group_117" data-name="Group 117" transform="translate(7.361 144.243)">
            <g id="Group_106" data-name="Group 106">
              <g id="Group_97" data-name="Group 97">
                <path id="Path_31" data-name="Path 31" d="M232.369,272.561a1.99,1.99,0,1,1-1.976-2.127A2.054,2.054,0,0,1,232.369,272.561Z" transform="translate(-228.398 -270.434)" fill="#e8505b"/>
              </g>
              <g id="Group_98" data-name="Group 98" transform="translate(6.153 0.028)">
                <path id="Path_32" data-name="Path 32" d="M238.742,272.591a1.99,1.99,0,1,1-1.976-2.128A2.054,2.054,0,0,1,238.742,272.591Z" transform="translate(-234.771 -270.463)" fill="#e8505b"/>
              </g>
              <g id="Group_99" data-name="Group 99" transform="translate(12.305 0.057)">
                <path id="Path_33" data-name="Path 33" d="M245.115,272.62a1.989,1.989,0,1,1-1.977-2.127A2.053,2.053,0,0,1,245.115,272.62Z" transform="translate(-241.144 -270.493)" fill="#e8505b"/>
              </g>
              <g id="Group_100" data-name="Group 100" transform="translate(18.458 0.085)">
                <path id="Path_34" data-name="Path 34" d="M251.487,272.649a1.989,1.989,0,1,1-1.975-2.127A2.053,2.053,0,0,1,251.487,272.649Z" transform="translate(-247.517 -270.522)" fill="#e8505b"/>
              </g>
              <g id="Group_101" data-name="Group 101" transform="translate(24.609 0.113)">
                <path id="Path_35" data-name="Path 35" d="M257.86,272.678a1.99,1.99,0,1,1-1.975-2.127A2.052,2.052,0,0,1,257.86,272.678Z" transform="translate(-253.889 -270.551)" fill="#e8505b"/>
              </g>
              <g id="Group_102" data-name="Group 102" transform="translate(30.762 0.142)">
                <path id="Path_36" data-name="Path 36" d="M264.233,272.708a1.99,1.99,0,1,1-1.976-2.127A2.051,2.051,0,0,1,264.233,272.708Z" transform="translate(-260.262 -270.581)" fill="#e8505b"/>
              </g>
              <g id="Group_103" data-name="Group 103" transform="translate(36.915 0.171)">
                <path id="Path_37" data-name="Path 37" d="M270.607,272.737a1.99,1.99,0,1,1-1.977-2.126A2.056,2.056,0,0,1,270.607,272.737Z" transform="translate(-266.635 -270.611)" fill="#e8505b"/>
              </g>
              <g id="Group_104" data-name="Group 104" transform="translate(43.067 0.199)">
                <path id="Path_38" data-name="Path 38" d="M276.979,272.766A1.989,1.989,0,1,1,275,270.64,2.054,2.054,0,0,1,276.979,272.766Z" transform="translate(-273.008 -270.64)" fill="#e8505b"/>
              </g>
              <g id="Group_105" data-name="Group 105" transform="translate(49.219 0.227)">
                <path id="Path_39" data-name="Path 39" d="M283.352,272.8a1.99,1.99,0,1,1-1.976-2.128A2.054,2.054,0,0,1,283.352,272.8Z" transform="translate(-279.38 -270.669)" fill="#e8505b"/>
              </g>
            </g>
            <g id="Group_116" data-name="Group 116">
              <g id="Group_107" data-name="Group 107">
                <path id="Path_40" data-name="Path 40" d="M232.369,272.561a1.99,1.99,0,1,1-1.976-2.127A2.054,2.054,0,0,1,232.369,272.561Z" transform="translate(-228.398 -270.434)" fill="#01a594"/>
              </g>
              <g id="Group_108" data-name="Group 108" transform="translate(6.153 0.028)">
                <path id="Path_41" data-name="Path 41" d="M238.742,272.591a1.99,1.99,0,1,1-1.976-2.128A2.054,2.054,0,0,1,238.742,272.591Z" transform="translate(-234.771 -270.463)" fill="#01a594"/>
              </g>
              <g id="Group_109" data-name="Group 109" transform="translate(12.305 0.057)">
                <path id="Path_42" data-name="Path 42" d="M245.115,272.62a1.989,1.989,0,1,1-1.977-2.127A2.053,2.053,0,0,1,245.115,272.62Z" transform="translate(-241.144 -270.493)" fill="#01a594"/>
              </g>
              <g id="Group_110" data-name="Group 110" transform="translate(18.458 0.085)">
                <path id="Path_43" data-name="Path 43" d="M251.487,272.649a1.989,1.989,0,1,1-1.975-2.127A2.053,2.053,0,0,1,251.487,272.649Z" transform="translate(-247.517 -270.522)" fill="#01a594"/>
              </g>
              <g id="Group_111" data-name="Group 111" transform="translate(24.609 0.113)">
                <path id="Path_44" data-name="Path 44" d="M257.86,272.678a1.99,1.99,0,1,1-1.975-2.127A2.052,2.052,0,0,1,257.86,272.678Z" transform="translate(-253.889 -270.551)" fill="#01a594"/>
              </g>
              <g id="Group_112" data-name="Group 112" transform="translate(30.762 0.142)">
                <path id="Path_45" data-name="Path 45" d="M264.233,272.708a1.99,1.99,0,1,1-1.976-2.127A2.051,2.051,0,0,1,264.233,272.708Z" transform="translate(-260.262 -270.581)" fill="#01a594"/>
              </g>
              <g id="Group_113" data-name="Group 113" transform="translate(36.915 0.171)">
                <path id="Path_46" data-name="Path 46" d="M270.607,272.737a1.99,1.99,0,1,1-1.977-2.126A2.056,2.056,0,0,1,270.607,272.737Z" transform="translate(-266.635 -270.611)" fill="#01a594"/>
              </g>
              <g id="Group_114" data-name="Group 114" transform="translate(43.067 0.199)">
                <path id="Path_47" data-name="Path 47" d="M276.979,272.766A1.989,1.989,0,1,1,275,270.64,2.054,2.054,0,0,1,276.979,272.766Z" transform="translate(-273.008 -270.64)" fill="#01a594"/>
              </g>
              <g id="Group_115" data-name="Group 115" transform="translate(49.219 0.227)">
                <path id="Path_48" data-name="Path 48" d="M283.352,272.8a1.99,1.99,0,1,1-1.976-2.128A2.054,2.054,0,0,1,283.352,272.8Z" transform="translate(-279.38 -270.669)" fill="#01a594"/>
              </g>
            </g>
          </g>
          <g id="Group_120" data-name="Group 120" transform="translate(26.991)">
            <g id="Group_118" data-name="Group 118" transform="translate(17.109)">
              <path id="Path_49" data-name="Path 49" d="M274.167,128.247a3.742,3.742,0,0,0,2.23-3.464,3.518,3.518,0,1,0-7.021-.032,3.739,3.739,0,0,0,2.237,3.5c-5.4.814-5.157,6.686-5.157,6.686l12.776.059S279.523,129.056,274.167,128.247Z" transform="translate(-266.453 -121.023)" fill="#e8505b"/>
              <path id="Path_50" data-name="Path 50" d="M274.167,128.247a3.742,3.742,0,0,0,2.23-3.464,3.518,3.518,0,1,0-7.021-.032,3.739,3.739,0,0,0,2.237,3.5c-5.4.814-5.157,6.686-5.157,6.686l12.776.059S279.523,129.056,274.167,128.247Z" transform="translate(-266.453 -121.023)" fill="#008174"/>
            </g>
            <g id="Group_119" data-name="Group 119" transform="translate(0 17.603)">
              <rect id="Rectangle_40" data-name="Rectangle 40" width="45.56" height="5.447" transform="matrix(1, 0.005, -0.005, 1, 0.025, 0)" fill="#e8505b"/>
              <rect id="Rectangle_41" data-name="Rectangle 41" width="45.56" height="5.447" transform="matrix(1, 0.005, -0.005, 1, 0.025, 0)" fill="#01a594"/>
            </g>
          </g>
        </g>
      </g>
    </g>
    <g id="Speech_Bubble" data-name="Speech Bubble" transform="translate(94.76 164.014)">
      <g id="Group_128" data-name="Group 128">
        <g id="Group_124" data-name="Group 124">
          <g id="Group_123" data-name="Group 123">
            <path id="Path_51" data-name="Path 51" d="M121.575,168.677a2.624,2.624,0,0,1-.448.05l-1.314.1a14.6,14.6,0,0,0-2.118.283c-.414.083-.872.117-1.339.255l-1.5.415a24.655,24.655,0,0,0-7.119,3.531,25.23,25.23,0,0,0-7.005,7.8,26.615,26.615,0,0,0-2.455,5.607,28.26,28.26,0,0,0-1.007,10.043c.032.592.159,1.18.235,1.777a12.582,12.582,0,0,0,.339,1.787,25.479,25.479,0,0,0,14.462,17.692,22.909,22.909,0,0,0,8.292,1.862,22.4,22.4,0,0,0,8.655-1.246l.849-.311.112-.042.1.051,12.177,6.182-.362.309c-1.3-4.034-2.561-7.947-3.77-11.7l-.046-.144.107-.108a26,26,0,0,0,6.393-10.628,26.707,26.707,0,0,0,.927-11.316,26.041,26.041,0,0,0-8.7-16.32,26.748,26.748,0,0,0-5.982-3.807,26.257,26.257,0,0,0-5.052-1.592l-1.894-.322-1.4-.1-.856-.066a1.442,1.442,0,0,1-.291-.038,1.589,1.589,0,0,1,.292-.006l.859.024,1.407.057,1.912.285a25.707,25.707,0,0,1,5.119,1.534,26.721,26.721,0,0,1,6.086,3.791,26.239,26.239,0,0,1,5.619,6.783,26.529,26.529,0,0,1,3.3,9.719,27.094,27.094,0,0,1-.9,11.508,26.42,26.42,0,0,1-6.487,10.844l.061-.253c1.215,3.753,2.481,7.662,3.787,11.7l.191.59-.553-.281-12.18-6.174.213.011-.867.319a22.912,22.912,0,0,1-8.849,1.271,23.43,23.43,0,0,1-8.472-1.912A25.905,25.905,0,0,1,97.4,200.421a12.887,12.887,0,0,1-.338-1.82c-.075-.607-.2-1.2-.232-1.807a28.547,28.547,0,0,1,1.066-10.2,26.838,26.838,0,0,1,2.523-5.678,25.358,25.358,0,0,1,7.154-7.847,24.5,24.5,0,0,1,7.231-3.489l1.515-.395c.472-.131.935-.157,1.353-.234a13.746,13.746,0,0,1,2.135-.235l1.322-.044A2.923,2.923,0,0,1,121.575,168.677Z" transform="translate(-96.733 -168.669)" fill="#01a594"/>
          </g>
        </g>
        <g id="Group_127" data-name="Group 127" transform="translate(15.293 13.56)">
          <g id="Group_125" data-name="Group 125">
            <path id="Path_52" data-name="Path 52" d="M127.629,191.7h-1.784l-3.894-5.427v-3.561s-2.758-.169-2.434,4.494-.026,3.476-.026,3.476-5.856.022-6.343.531c-.353.37-.514,6.186-.574,9.34a3.416,3.416,0,0,0,2.42,3.441,2.578,2.578,0,0,0,.629.085c1.461,0,8.923-1.187,8.923-1.187h3.082Z" transform="translate(-112.573 -182.715)" fill="#01a594"/>
          </g>
          <g id="Group_126" data-name="Group 126" transform="translate(16.01 8.011)">
            <path id="Path_53" data-name="Path 53" d="M133.31,191.013l-1.1,12.2h-3.056V191.259Z" transform="translate(-129.157 -191.013)" fill="#01a594"/>
          </g>
        </g>
      </g>
    </g>
    <g id="Character" transform="translate(119.599 169.761)">
      <g id="Group_198" data-name="Group 198">
        <g id="Group_197" data-name="Group 197">
          <g id="Group_142" data-name="Group 142" transform="translate(32.08 255.893)">
            <g id="Group_129" data-name="Group 129">
              <path id="Path_54" data-name="Path 54" d="M170.615,448.042v-8.259l-14.8-.1-.123,12.478.918.069c4.083.265,20.776.648,23.512-.2C183.173,451.086,170.615,448.042,170.615,448.042Z" transform="translate(-155.692 -439.683)" fill="#e8505b"/>
            </g>
            <g id="Group_131" data-name="Group 131" transform="translate(0.05 11.322)">
              <g id="Group_130" data-name="Group 130">
                <path id="Path_55" data-name="Path 55" d="M180.473,451.661c0,.14-5.537.252-12.364.252s-12.365-.112-12.365-.252,5.536-.25,12.365-.25S180.473,451.523,180.473,451.661Z" transform="translate(-155.744 -451.411)" fill="#263238"/>
              </g>
            </g>
            <g id="Group_133" data-name="Group 133" transform="translate(15.134 8.528)">
              <g id="Group_132" data-name="Group 132">
                <path id="Path_56" data-name="Path 56" d="M171.417,450.033c-.122-.064-.016-.5.3-.93s.7-.661.8-.564-.1.462-.4.861S171.542,450.1,171.417,450.033Z" transform="translate(-171.368 -448.517)" fill="#263238"/>
              </g>
            </g>
            <g id="Group_135" data-name="Group 135" transform="translate(16.065 8.782)">
              <g id="Group_134" data-name="Group 134">
                <path id="Path_57" data-name="Path 57" d="M172.395,450.586c-.127-.048-.062-.538.23-1.052s.674-.825.782-.74-.075.508-.345.988S172.527,450.637,172.395,450.586Z" transform="translate(-172.333 -448.78)" fill="#263238"/>
              </g>
            </g>
            <g id="Group_137" data-name="Group 137" transform="translate(0.239 8.636)">
              <g id="Group_136" data-name="Group 136">
                <path id="Path_58" data-name="Path 58" d="M160.21,451.528c-.058.041-.278-.176-.6-.54a9.747,9.747,0,0,0-1.3-1.3,3.407,3.407,0,0,0-1.6-.7c-.451-.06-.745.01-.771-.063-.025-.054.25-.26.783-.293a2.944,2.944,0,0,1,1.9.656,5.391,5.391,0,0,1,1.278,1.49C160.151,451.2,160.265,451.49,160.21,451.528Z" transform="translate(-155.939 -448.629)" fill="#263238"/>
              </g>
            </g>
            <g id="Group_139" data-name="Group 139" transform="translate(13.801 8.431)">
              <g id="Group_138" data-name="Group 138">
                <path id="Path_59" data-name="Path 59" d="M171.415,448.477c.072.117-.181.4-.6.558s-.8.1-.822-.034.278-.3.649-.437S171.342,448.357,171.415,448.477Z" transform="translate(-169.988 -448.416)" fill="#263238"/>
              </g>
            </g>
            <g id="Group_141" data-name="Group 141" transform="translate(13.228 7.455)">
              <g id="Group_140" data-name="Group 140">
                <path id="Path_60" data-name="Path 60" d="M171.163,447.643c.013.138-.381.258-.881.264s-.9-.1-.887-.239.4-.256.88-.263S171.148,447.505,171.163,447.643Z" transform="translate(-169.394 -447.405)" fill="#263238"/>
              </g>
            </g>
          </g>
          <g id="Group_156" data-name="Group 156" transform="translate(68.527 255.893)">
            <g id="Group_143" data-name="Group 143">
              <path id="Path_61" data-name="Path 61" d="M208.366,448.042v-8.259l-14.8-.1-.123,12.351.917.068c4.083.265,20.777.775,23.513-.071C220.925,451.086,208.366,448.042,208.366,448.042Z" transform="translate(-193.444 -439.683)" fill="#e8505b"/>
            </g>
            <g id="Group_145" data-name="Group 145" transform="translate(0.05 11.34)">
              <g id="Group_144" data-name="Group 144">
                <path id="Path_62" data-name="Path 62" d="M218.225,451.681c0,.138-5.537.252-12.364.252s-12.365-.114-12.365-.252,5.535-.252,12.365-.252S218.225,451.542,218.225,451.681Z" transform="translate(-193.496 -451.429)" fill="#263238"/>
              </g>
            </g>
            <g id="Group_147" data-name="Group 147" transform="translate(15.134 8.528)">
              <g id="Group_146" data-name="Group 146">
                <path id="Path_63" data-name="Path 63" d="M209.169,450.033c-.122-.064-.017-.5.3-.93s.7-.661.8-.564-.1.462-.4.861S209.293,450.1,209.169,450.033Z" transform="translate(-209.12 -448.517)" fill="#263238"/>
              </g>
            </g>
            <g id="Group_149" data-name="Group 149" transform="translate(16.065 8.782)">
              <g id="Group_148" data-name="Group 148">
                <path id="Path_64" data-name="Path 64" d="M210.147,450.586c-.128-.048-.062-.538.23-1.052s.674-.825.782-.74-.075.508-.345.988S210.278,450.637,210.147,450.586Z" transform="translate(-210.084 -448.78)" fill="#263238"/>
              </g>
            </g>
            <g id="Group_151" data-name="Group 151" transform="translate(0.239 8.636)">
              <g id="Group_150" data-name="Group 150">
                <path id="Path_65" data-name="Path 65" d="M197.961,451.528c-.057.041-.278-.176-.6-.54a9.747,9.747,0,0,0-1.3-1.3,3.406,3.406,0,0,0-1.6-.7c-.45-.06-.745.01-.77-.063-.026-.054.249-.26.782-.293a2.945,2.945,0,0,1,1.9.656,5.392,5.392,0,0,1,1.278,1.49C197.9,451.2,198.017,451.49,197.961,451.528Z" transform="translate(-193.691 -448.629)" fill="#263238"/>
              </g>
            </g>
            <g id="Group_153" data-name="Group 153" transform="translate(13.801 8.431)">
              <g id="Group_152" data-name="Group 152">
                <path id="Path_66" data-name="Path 66" d="M209.167,448.477c.071.117-.181.4-.6.558s-.8.1-.822-.034.278-.3.648-.437S209.094,448.357,209.167,448.477Z" transform="translate(-207.74 -448.416)" fill="#263238"/>
              </g>
            </g>
            <g id="Group_155" data-name="Group 155" transform="translate(13.227 7.455)">
              <g id="Group_154" data-name="Group 154">
                <path id="Path_67" data-name="Path 67" d="M208.914,447.643c.014.138-.38.258-.88.264s-.9-.1-.888-.239.4-.256.881-.263S208.9,447.505,208.914,447.643Z" transform="translate(-207.145 -447.405)" fill="#263238"/>
              </g>
            </g>
          </g>
          <g id="Group_157" data-name="Group 157" transform="translate(0 6.122)">
            <path id="Path_68" data-name="Path 68" d="M260.434,193.979c-.386-.4-1.335-.21-1.335-.21a5.126,5.126,0,0,0-.01-1.674c-.175-.545-1.392-.44-1.392-.44a5.662,5.662,0,0,1,.032-1.373.487.487,0,0,0-.283-.486,4.5,4.5,0,0,0-1.819-.331c-.746-.533,2.27-4.75,3.389-6.1,1.1-1.333.919-2.4-.078-2.4-.68,0-4.2,4.055-5.275,5.416s-3.954,5.146-4.052,2.124-1.313-5.3-2.071-5.695-1.577.524-1.158,1.363a11.009,11.009,0,0,1,.676,2.972,7.235,7.235,0,0,1-.111,2.443,28.16,28.16,0,0,1-1.3,4.36l-.074-.042s-21.072,20.2-22.592,21.647c-1.367,1.3-28.747-1.535-34.233-2.117a38,38,0,0,0-5.644-.385c-2.38.1-2.8.442-5.184.474a117.11,117.11,0,0,0-17.893,1.573,14.818,14.818,0,0,0-11.644,10.1c-5.536,17.279-18.062,58.184-20.294,81.164a96.037,96.037,0,0,0-4.521,9.338c-1.551,4.224-1.174,4.368-.652,4.465,1.4.26,3.01-7.326,3.61-5.5s-3.043,9.05-1.565,9.26c1.927.275,3.463-7.7,3.643-8.361.174-.646,1.147-.428.952.164-.279.85-3,9.858-1.106,10.146,1.047.16,1.16-1.748,1.16-1.748s1.921-8.614,2.808-8.448-.056,5.264-.5,6.96c-.439,1.676.18,2.566,1.083,2.144.616-.288,2.1-5.448,2.5-7.135s1.416-6.332,2.779-3.635,3.426,4.257,4.279,4.291a.946.946,0,0,0,.474-1.724,11.013,11.013,0,0,1-1.866-2.41,7.229,7.229,0,0,1-.929-2.261,25.058,25.058,0,0,1-.673-4.885l-.157-.993c2.162-10.709,8.393-42.129,17.345-62.2l3.686,7.586,1.6,5.615-9.824,24.27,41.912-.552-6.247-24.076,7.591-25.106h0c8.217.183,29.317.489,32.863-1.1,4.422-1.975,27.3-30.816,27.3-30.816h0a54.555,54.555,0,0,0,4.276-3.711S261.273,194.84,260.434,193.979Z" transform="translate(-122.462 -180.964)" fill="#ffbe9d"/>
          </g>
          <g id="Group_171" data-name="Group 171" transform="translate(14.853 36.263)">
            <g id="Group_158" data-name="Group 158">
              <path id="Path_69" data-name="Path 69" d="M150.924,264.512c1.213-4.15,7.461-24.672,7.461-24.672s3.066,16.732,2.26,18.746a35.47,35.47,0,0,1-2.635,4.979c-7.086,10.791-6.156,16.185-6.156,16.185l42.806-1.305c.1-5.987-3.439-19.9-4.18-22.122s1.717-9.5,1.717-9.5,4.837-4.913,4.649-7.441a40.869,40.869,0,0,0-.843-6.74l26.047.96-.818-17.674-37.442-3.747c-1.3,3.687-13.086,1.881-13.086,1.881-12.729.418-13.5,2.759-18.808,6.869s-14.049,39.407-14.049,39.407Z" transform="translate(-137.848 -212.185)" fill="#e8505b"/>
            </g>
            <g id="Group_160" data-name="Group 160" transform="translate(23.123 46.595)">
              <g id="Group_159" data-name="Group 159">
                <path id="Path_70" data-name="Path 70" d="M177.068,262.007a9.191,9.191,0,0,1-2.256.114c-1.394-.009-3.319-.1-5.435-.307s-4.021-.513-5.389-.782a9.146,9.146,0,0,1-2.188-.561,11.192,11.192,0,0,1,2.245.21c1.377.178,3.278.419,5.382.631s4.014.354,5.4.453A11.146,11.146,0,0,1,177.068,262.007Z" transform="translate(-161.8 -260.449)" fill="#263238"/>
              </g>
            </g>
            <g id="Group_162" data-name="Group 162" transform="translate(24.724 44.498)">
              <g id="Group_161" data-name="Group 161">
                <path id="Path_71" data-name="Path 71" d="M180.055,258.292a10.035,10.035,0,0,1-2.337.8,42.439,42.439,0,0,1-11.8,1.4,9.954,9.954,0,0,1-2.458-.228,15.012,15.012,0,0,1,2.457-.127c1.514-.047,3.6-.158,5.893-.431s4.346-.654,5.829-.963A14.959,14.959,0,0,1,180.055,258.292Z" transform="translate(-163.458 -258.277)" fill="#263238"/>
              </g>
            </g>
            <g id="Group_164" data-name="Group 164" transform="translate(52.136 28.273)">
              <g id="Group_163" data-name="Group 163">
                <path id="Path_72" data-name="Path 72" d="M195.437,241.471a9.256,9.256,0,0,1-.293,2.184c-.249,1.335-.64,3.169-1.133,5.181s-1,3.821-1.393,5.12a9.283,9.283,0,0,1-.75,2.071,9.915,9.915,0,0,1,.407-2.163c.365-1.506.785-3.236,1.247-5.147l1.275-5.139A9.928,9.928,0,0,1,195.437,241.471Z" transform="translate(-191.852 -241.471)" fill="#263238"/>
              </g>
            </g>
            <g id="Group_166" data-name="Group 166" transform="translate(0.469 46.29)">
              <g id="Group_165" data-name="Group 165">
                <path id="Path_73" data-name="Path 73" d="M151.389,263.712a45.688,45.688,0,0,1-6.594-1.537,45.616,45.616,0,0,1-6.462-2.024,45.743,45.743,0,0,1,6.594,1.539A45.814,45.814,0,0,1,151.389,263.712Z" transform="translate(-138.334 -260.134)" fill="#263238"/>
              </g>
            </g>
            <g id="Group_168" data-name="Group 168" transform="translate(46.698 1.006)">
              <g id="Group_167" data-name="Group 167">
                <path id="Path_74" data-name="Path 74" d="M198.148,232.456a3.527,3.527,0,0,1-1.108-.006,11.259,11.259,0,0,1-2.945-.7,12.349,12.349,0,0,1-3.841-2.339,12.035,12.035,0,0,1-3.141-4.525,12.43,12.43,0,0,1-.865-5.441,8.545,8.545,0,0,1,1.321-4.306,4.457,4.457,0,0,1,2.443-1.8,3.007,3.007,0,0,1,.824-.11c.19,0,.288.025.288.041,0,.048-.4.025-1.053.256a4.468,4.468,0,0,0-2.207,1.811c-1.314,2.066-1.681,5.838-.285,9.363a11.949,11.949,0,0,0,2.988,4.369,12.617,12.617,0,0,0,3.662,2.352A19,19,0,0,0,198.148,232.456Z" transform="translate(-186.219 -213.227)" fill="#263238"/>
              </g>
            </g>
            <g id="Group_170" data-name="Group 170" transform="translate(80.896 3.275)">
              <g id="Group_169" data-name="Group 169">
                <path id="Path_75" data-name="Path 75" d="M221.876,233.37a79.06,79.06,0,0,1-.233-8.9,78.675,78.675,0,0,1,.268-8.9,78.931,78.931,0,0,1,.234,8.9A78.783,78.783,0,0,1,221.876,233.37Z" transform="translate(-221.642 -215.577)" fill="#263238"/>
              </g>
            </g>
          </g>
          <g id="Group_178" data-name="Group 178" transform="translate(20.969)">
            <g id="Group_172" data-name="Group 172" transform="translate(25.202 3.525)">
              <path id="Path_76" data-name="Path 76" d="M184.682,212.089c.105-2.155.331-4.589.331-4.589a6.452,6.452,0,0,0,5.651-6.091c.323-5.5,0-18.194,0-18.194l-9.7-4.941L170.287,186.7l1.617,27.515,9.822.625A2.832,2.832,0,0,0,184.682,212.089Z" transform="translate(-170.287 -178.274)" fill="#ffbe9d"/>
            </g>
            <g id="Group_174" data-name="Group 174" transform="translate(38.341 19.176)">
              <g id="Group_173" data-name="Group 173">
                <path id="Path_77" data-name="Path 77" d="M186.113,197.617c.015,0,.016.1-.084.237a.755.755,0,0,1-.613.269c-.618-.029-1.214-.712-1.433-1.548a2.647,2.647,0,0,1-.027-1.223,1.048,1.048,0,0,1,.58-.829.524.524,0,0,1,.409.01.467.467,0,0,1,.218.222c.072.164.016.264,0,.255s-.016-.091-.1-.194a.356.356,0,0,0-.459-.1.865.865,0,0,0-.4.689,2.583,2.583,0,0,0,.044,1.091c.193.747.712,1.359,1.173,1.414a.7.7,0,0,0,.519-.142C186.056,197.685,186.092,197.607,186.113,197.617Z" transform="translate(-183.897 -194.486)" fill="#eb996e"/>
              </g>
            </g>
            <g id="Group_175" data-name="Group 175">
              <path id="Path_78" data-name="Path 78" d="M193.07,180.118c-.741-2.534-3.434-3.792-5.888-4.487-3.733-1.058-7.777-1.526-11.425-.183s-8.034,3.705-8.033,7.735c-2.153-.177-3.383,1.71-4.237,4.047a15.448,15.448,0,0,0-.916,4.44l-.035-.012c-.277,5.274-1.746,12.541-5.166,16.441-1.888,2.154-4.607,3.643-5.708,6.324-.957,2.331-.461,5.087-1.366,7.44-.8,2.078-2.566,3.553-3.834,5.36a14.339,14.339,0,0,0-.92,13.892,17.632,17.632,0,0,0,10.509,9.082,24.618,24.618,0,0,0,13.861.129,23.169,23.169,0,0,0,9.285-4.6,15.56,15.56,0,0,0,5.331-9c.681-3.944-.424-7.948-1.236-11.865-2.568-12.392-1.835-13.036,1.407-24.53.073-.2.118-.413.175-.622.042-.153.083-.3.127-.455l-.007,0a7.087,7.087,0,0,0,.152-1.375,2.638,2.638,0,0,1-2.791-.6,2.918,2.918,0,0,1-.66-2.889,4.181,4.181,0,0,1,2.49-2.346c1.071-.451,2.222-.674,3.274-1.174a10.929,10.929,0,0,0,4.826-5.569A7.618,7.618,0,0,0,193.07,180.118Z" transform="translate(-144.183 -174.623)" fill="#263238"/>
            </g>
            <g id="Group_177" data-name="Group 177" transform="translate(39.276 22.541)">
              <g id="Group_176" data-name="Group 176">
                <path id="Path_79" data-name="Path 79" d="M186.527,197.972a4.389,4.389,0,0,1,.508.955c.287.609.672,1.469,1.1,2.458l.08.187-.2.017-.983.085c-.674.043-1.236.125-1.888.117a.342.342,0,0,1-.249-.219.568.568,0,0,1-.015-.268c.029-.152.062-.264.092-.391l.17-.684a6.5,6.5,0,0,1,.406-1.337,6.4,6.4,0,0,1-.2,1.382l-.134.691c-.05.233-.134.582-.009.555.48-.021,1.165-.1,1.8-.148l.983-.078-.124.2c-.413-.993-.764-1.869-1-2.5A4.376,4.376,0,0,1,186.527,197.972Z" transform="translate(-184.866 -197.972)" fill="#e8505b"/>
              </g>
            </g>
          </g>
          <g id="Group_196" data-name="Group 196" transform="translate(26.785 102.524)">
            <g id="Group_179" data-name="Group 179">
              <path id="Path_80" data-name="Path 80" d="M152.281,282.124l42.806-1.305,18.618,72.733-3.429,83.43H187.619l2.808-81.654L173.868,304.7l2.551,135.521-22.874.338L151.135,313.17c-.1-3.54-1.266-11.529-.831-15.041Z" transform="translate(-150.207 -280.819)" fill="#263238"/>
            </g>
            <g id="Group_181" data-name="Group 181" transform="translate(15.352 22.071)">
              <g id="Group_180" data-name="Group 180">
                <path id="Path_81" data-name="Path 81" d="M180.119,306.515a8.228,8.228,0,0,1-2.1-.125c-1.288-.152-3.059-.424-5-.813s-3.679-.825-4.926-1.185a8.2,8.2,0,0,1-1.985-.7c.038-.14,3.146.613,7.01,1.387S180.137,306.372,180.119,306.515Z" transform="translate(-166.109 -303.68)" fill="#455a64"/>
              </g>
            </g>
            <g id="Group_183" data-name="Group 183" transform="translate(36.95 151.337)">
              <g id="Group_182" data-name="Group 182">
                <path id="Path_82" data-name="Path 82" d="M211.394,437.828c0,.14-5.13.252-11.456.252s-11.458-.112-11.458-.252,5.128-.25,11.458-.25S211.394,437.69,211.394,437.828Z" transform="translate(-188.481 -437.578)" fill="#455a64"/>
              </g>
            </g>
            <g id="Group_185" data-name="Group 185" transform="translate(3.78 155.627)">
              <g id="Group_184" data-name="Group 184">
                <path id="Path_83" data-name="Path 83" d="M176.35,442.272c0,.139-4.976.252-11.114.252s-11.114-.113-11.114-.252,4.975-.251,11.114-.251S176.35,442.133,176.35,442.272Z" transform="translate(-154.122 -442.021)" fill="#455a64"/>
              </g>
            </g>
            <g id="Group_187" data-name="Group 187" transform="translate(20.847 23.248)">
              <g id="Group_186" data-name="Group 186">
                <path id="Path_84" data-name="Path 84" d="M174.015,437.182c-.139,0-.74-29.611-1.344-66.133s-.98-66.147-.841-66.149.741,29.6,1.344,66.141S174.154,437.18,174.015,437.182Z" transform="translate(-171.801 -304.9)" fill="#455a64"/>
              </g>
            </g>
            <g id="Group_189" data-name="Group 189" transform="translate(41.407 1.305)">
              <g id="Group_188" data-name="Group 188">
                <path id="Path_85" data-name="Path 85" d="M208.511,432.453a2.348,2.348,0,0,1-.011-.394l.021-1.157c.03-1.044.073-2.536.129-4.446.134-3.886.328-9.463.567-16.344.529-13.823,1.258-32.874,2.062-53.918.008-.194.015-.388.023-.568l.007.071c-5.073-20.314-9.659-38.676-12.983-51.99l-3.874-15.748c-.442-1.841-.787-3.28-1.028-4.286-.108-.472-.192-.842-.255-1.117a2.209,2.209,0,0,1-.07-.385,2.453,2.453,0,0,1,.12.373l.3,1.105c.264,1,.639,2.432,1.12,4.263.957,3.733,2.331,9.093,4.028,15.709,3.363,13.3,8,31.653,13.128,51.955l.01.035,0,.037c-.007.178-.015.373-.022.568-.862,21.041-1.643,40.09-2.21,53.912-.306,6.879-.554,12.453-.727,16.338-.1,1.908-.171,3.4-.223,4.442-.03.488-.053.871-.071,1.155A2.254,2.254,0,0,1,208.511,432.453Z" transform="translate(-193.097 -282.171)" fill="#455a64"/>
              </g>
            </g>
            <g id="Group_191" data-name="Group 191" transform="translate(39.149 73.028)">
              <g id="Group_190" data-name="Group 190">
                <path id="Path_86" data-name="Path 86" d="M201.045,356.5a26.3,26.3,0,0,1-5.006,1.115c-2.081.358-3.879.6-4.665.648v-.2c.261.071.4.126.395.162s-.155.045-.426.034l-.585-.026.584-.17c.755-.221,2.531-.59,4.613-.947A26.3,26.3,0,0,1,201.045,356.5Z" transform="translate(-190.758 -356.463)" fill="#455a64"/>
              </g>
            </g>
            <g id="Group_193" data-name="Group 193" transform="translate(40.012 75.008)">
              <g id="Group_192" data-name="Group 192">
                <path id="Path_87" data-name="Path 87" d="M200.643,359.344a25.881,25.881,0,0,1-4.507-.2,26,26,0,0,1-4.484-.5,28.588,28.588,0,0,1,8.991.7Z" transform="translate(-191.652 -358.515)" fill="#455a64"/>
              </g>
            </g>
            <g id="Group_194" data-name="Group 194" transform="translate(1.884)">
              <path id="Path_88" data-name="Path 88" d="M152.158,283.661a5.881,5.881,0,0,0,4.227,2.248,19.136,19.136,0,0,0,5.191-.1c11.049-1.226,22.758-2.358,33.579-4.993-14.007.785-28.8.52-42.806,1.305,0,0-.12.963-.148,1.2" transform="translate(-152.158 -280.819)" opacity="0.2"/>
            </g>
            <g id="Group_195" data-name="Group 195" transform="translate(16.322 22.586)" opacity="0.2">
              <path id="Path_89" data-name="Path 89" d="M167.114,304.214l7.892,30.635-.552-29.344Z" transform="translate(-167.114 -304.214)"/>
            </g>
          </g>
        </g>
      </g>
    </g>
  </g>
</svg>
